<?xml version="1.0" encoding="UTF-8"?>
<!DOCTYPE svg PUBLIC "-//W3C//DTD SVG 1.1//EN" "http://www.w3.org/Graphics/SVG/1.1/DTD/svg11.dtd">
<!-- Creator: CorelDRAW -->
<svg xmlns="http://www.w3.org/2000/svg" xml:space="preserve" width="45.7836mm" height="44.0113mm" version="1.1" style="shape-rendering:geometricPrecision; text-rendering:geometricPrecision; image-rendering:optimizeQuality; fill-rule:evenodd; clip-rule:evenodd"
viewBox="0 0 2506.11 2409.1"
 xmlns:xlink="http://www.w3.org/1999/xlink"
 xmlns:xodm="http://www.corel.com/coreldraw/odm/2003">
 <defs>
  <style type="text/css">
   <![CDATA[
    .str0 {stroke:#373435;stroke-width:10.95;stroke-miterlimit:22.9256}
    .fil9 {fill:black}
    .fil1 {fill:blue}
    .fil5 {fill:#003399}
    .fil0 {fill:#090F34}
    .fil8 {fill:#1A1A1A}
    .fil7 {fill:#333333}
    .fil6 {fill:#336699}
    .fil10 {fill:#663399}
    .fil4 {fill:#6699FF}
    .fil3 {fill:#6699FF;fill-rule:nonzero}
    .fil2 {fill:white;fill-rule:nonzero}
   ]]>
  </style>
 </defs>
 <g id="Camada_x0020_1">
  <metadata id="CorelCorpID_0Corel-Layer"/>
  <path class="fil0" d="M229.99 1017.78c12.38,-61.58 33.36,-120.39 60.78,-176.7 -41.38,-27.13 -81.67,-55.91 -120.4,-86.72 -13.62,-10.83 -17.13,-29.77 -8.28,-44.76l106.39 -180.35c9.02,-15.28 27.86,-21.28 44.05,-14.03l144.39 64.64c27.18,-43.23 61.18,-81.48 99.46,-115.23l-64.69 -119.42c-7.29,-13.45 -5.17,-29.39 5.4,-40.47 22,-23.05 49.17,-43.69 74.84,-62.53 29.59,-21.7 59.88,-42.44 89.66,-63.89 13.53,-9.74 31.59,-8.64 43.83,2.68 37.64,34.84 71.5,73.49 106.59,110.83 49.8,-31.31 105.74,-52.3 161.9,-69.43l-28.64 -130.98c-3.9,-17.85 6.63,-35.6 24.17,-40.71l169.1 -49.3c17.14,-5 35.11,3.69 41.84,20.24 19.97,49.14 36.07,99.83 53.48,149.94 61.92,-11.57 125.87,-8.33 187.99,0.86l46.81 -142.77c5.69,-17.34 23.73,-27.28 41.43,-22.82l162.92 41.05c16.62,4.18 27.55,19.51 26.08,36.6l-11.87 138.16c90.73,27.75 175.55,68.26 257.49,115.92 13.31,7.74 19.78,22.59 16.39,37.61 -3.39,15.02 -15.61,25.66 -30.95,26.94l-126.57 10.56c-7.47,0.62 -14.06,-0.89 -20.51,-4.7 -5.13,-3.03 -10.24,-5.26 -16.19,-3.64 -7.9,2.15 -17.77,9.62 -24.3,14.44 -34.62,25.6 -65.35,45.38 -110.74,30.47 -190.16,-62.47 -393.41,-58.33 -580.59,12.66 -177.76,67.43 -331.78,190.94 -437.39,348.89 -130.72,195.53 -193.28,411.66 -185.17,646.09 0.37,10.6 -3.57,19.88 -11.45,26.97 -7.88,7.11 -17.51,10.05 -28.02,8.58 -53.89,-7.54 -111.05,-9.26 -164.18,4.15 -10.83,2.74 -21.3,0.49 -30.05,-6.45 -8.75,-6.95 -13.32,-16.65 -13.12,-27.81l2.07 -113.37 -158.23 -42.42c-17.25,-4.63 -28.1,-21.38 -25.27,-39.01 11.72,-72.93 26.74,-145.24 43.62,-217.14 3.6,-15.33 16.48,-26.02 32.21,-26.72l153.71 -6.91z"/>
  <path class="fil1 str0" d="M394.03 1459.12c-63.48,-8.88 -123.28,-8.8 -177.47,4.87l2.33 -127.23c0.61,-8.22 -3.84,-14.03 -14.99,-17.34l-169.2 -45.36c11.69,-72.76 26.56,-144.12 43.14,-214.72l165.61 -7.46c14.26,-0.67 16.24,-7.37 20.25,-25.76 12.96,-65.28 35.72,-125.96 65.07,-183.53 4.15,-10.66 1.53,-17.68 -9.29,-24.21 -44.07,-28.52 -86.72,-58.72 -127.51,-91.18l106.39 -180.35 151.53 67.84c12,5.71 19.86,7.27 28.98,-4.15 26.39,-45.29 62.57,-88 109.63,-127.85 11.06,-10.57 7.88,-15.82 0.86,-30.07l-67.16 -123.96c34.87,-36.55 99.28,-78.73 159.68,-122.22 38.01,35.18 73.34,75.83 110.02,114.59 10.48,9.84 22.45,10.07 35.68,2 50.39,-32.31 109.22,-53.65 170.58,-71.7 10.43,-4 12.39,-11.79 11.93,-25.95l-30.92 -141.38 169.09 -49.3c20.4,50.18 37.9,105.94 56.65,159.12 2.28,13.88 12.35,17.17 27.65,13.36 63.75,-13.35 131.28,-9.11 197.45,1.61 9.68,2.58 17.12,-2.53 21.92,-16.7l49.71 -151.61 162.92 41.05 -12.14 141.33c-2.55,18.05 3.28,27.7 16.1,30.38 93.48,27.61 178.16,68.42 258.79,115.32l-126.58 10.55c-65.28,-38.51 -92,59.87 -158.02,38.19 -418.74,-137.54 -837.04,48.73 -1057.64,375.23 -140.6,213.78 -198.96,436.54 -191,666.57z"/>
  <path class="fil0" d="M2185.76 1452.41c2.82,-2.14 5.73,-4.21 8.7,-6.21 32.18,-21.63 69.26,-31.64 107.87,-31.64 41.61,0 81.15,10.88 115.23,35.05 33.36,23.65 57.29,56.29 68.89,95.52 10.78,36.5 11.98,81.76 11.98,119.7 0,7.27 0,14.54 0,21.81 0,25.66 -9.14,47.88 -27.05,65.84 4.27,7.62 8.1,15.33 11.36,23.09 19.68,46.8 23.38,105.26 23.38,155.54 0,37.18 -2.04,79.76 -13.85,115.23 -13.35,40.06 -40.31,72.08 -77.2,92.63 -37.91,21.11 -80.15,25.78 -122.49,17.54 -42.28,-8.22 -80.02,-27.98 -110.7,-58.2 -2.22,-2.19 -4.38,-4.41 -6.5,-6.67 -5.28,2.99 -10.75,5.71 -16.42,8.13 -34.18,14.64 -70.88,16.41 -107.06,9.33 -32.32,-6.31 -62.34,-19.44 -88.77,-39.07 -8.56,-6.35 -16.51,-13.29 -23.88,-20.75 -13.66,6.13 -28.31,10.08 -43.52,11.9 -24.7,2.94 -51.14,-0.36 -75.58,-4.38 -38.02,-6.25 -76.09,-12.12 -114.2,-17.72 -2.59,-0.38 -5.14,-0.86 -7.65,-1.43 -2.37,-0.15 -4.76,-0.39 -7.17,-0.72 -30.78,-4.17 -61.58,-8.21 -92.43,-11.91 -7.08,-0.85 -13.9,-2.45 -20.36,-4.72 -6.79,0.78 -13.79,0.82 -21,0.09 -31.13,-3.11 -62.29,-5.94 -93.47,-8.55 -2.07,-0.18 -4.11,-0.41 -6.11,-0.69 -2.67,0.03 -5.38,-0.05 -8.11,-0.22 -26.1,-1.73 -52.21,-3.31 -78.34,-4.43 -7.93,-0.34 -15.58,-1.62 -22.86,-3.73 -7.04,1.53 -14.41,2.24 -22.08,2.14 -25.07,-0.33 -50.15,-0.68 -75.22,-0.56 -4.4,0.02 -8.7,-0.23 -12.89,-0.75 -3.77,0.55 -7.61,0.88 -11.52,0.95 -52.43,1.13 -104.84,2.84 -157.22,5.33 -5.67,0.27 -11.18,0.09 -16.54,-0.54 -5.6,1.43 -11.41,2.36 -17.38,2.75 -27.74,1.8 -55.45,3.92 -83.13,6.35 -4.88,0.43 -9.67,0.5 -14.35,0.25 -3.85,0.89 -7.79,1.55 -11.82,1.98 -30.21,3.11 -60.42,6.21 -90.58,9.8 -6.26,0.74 -12.38,0.91 -18.35,0.51 -5.31,1.7 -10.84,2.93 -16.56,3.67 -19.08,2.49 -38.15,5.12 -57.21,7.74 -3.59,0.49 -7.17,0.79 -10.71,0.88 -16.26,9.04 -33.99,15.14 -52.77,18.16 -27.29,4.4 -54.61,2.04 -80.19,-7.04 -11.5,9.09 -25.31,15.56 -40.69,18.53 -26.44,5.09 -52.86,10.29 -79.22,15.75 -8.07,1.66 -16.13,2.24 -24.01,1.82 -6.92,3.49 -14.38,6.17 -22.29,7.95 -25.21,5.63 -50.42,11.25 -75.55,17.25 -4.49,1.07 -8.95,1.83 -13.37,2.28 -3.78,1.47 -7.7,2.72 -11.75,3.72 -52.72,13.14 -105.31,26.81 -157.78,40.91 -29.07,7.81 -57.4,2.19 -81.29,-16.12 -23.89,-18.32 -36.67,-44.22 -36.67,-74.32 0,-92.11 0,-184.22 0,-276.32 0,-92.12 0,-184.25 0,-276.38 0,-51.44 41.79,-93.42 93.23,-93.65 51.03,-0.23 102.07,-0.52 153.1,-0.75 5.66,-0.02 11.14,0.39 16.45,1.25 5.16,-0.91 10.47,-1.39 15.89,-1.42 25.63,-0.11 51.27,-0.23 76.9,-0.34 8.96,-0.04 17.64,1.14 25.87,3.42 8.1,-2.34 16.63,-3.61 25.46,-3.65 25.63,-0.12 51.26,-0.18 76.89,-0.29 17.18,-0.08 32.78,3.94 46.7,11.98 27.75,-14.53 58.89,-21.42 91.45,-21.42 33.98,0 66.9,7.08 96.49,22.42 14.18,-8.74 30.86,-13.8 48.67,-13.84 21.67,-0.06 43.33,-0.13 64.99,-0.17 34.38,-0.06 77.39,0.04 110.76,8.35 5.6,1.39 11.04,3.08 16.32,5.06 14.15,-8.64 30.75,-13.63 48.48,-13.64 51.14,-0.06 102.29,-0.12 153.43,-0.12 5.51,0 10.91,0.48 16.17,1.41 5.25,-0.93 10.66,-1.41 16.17,-1.41 25.63,0 51.26,0 76.89,0 8.83,0 17.38,1.18 25.49,3.4 8.23,-2.28 16.92,-3.42 26.06,-3.4 25.63,0.06 51.26,0.06 76.89,0.12 10.88,0.02 21.33,1.92 31.04,5.36 9.8,-3.42 20.34,-5.27 31.29,-5.25 44.37,0.06 88.73,0.17 133.1,0.29 11.94,0.03 23.37,2.26 33.88,6.34 10.64,-4.14 22.12,-6.2 34.41,-6.17 22.95,0.07 45.89,0.16 68.83,0.23 37.28,0.13 84.41,1.06 119.81,13.18 14.19,4.87 27.47,11.33 39.58,19.39 6.91,-5.54 14.25,-10.61 22,-15.19 30.47,-17.98 64.58,-26.36 99.85,-26.36 34.69,0 68.12,8.45 98.1,25.96 6.22,3.64 12.16,7.61 17.81,11.89z"/>
  <path class="fil0" d="M1885.8 1983.85c11.38,-4.93 23.93,-7.67 37.09,-7.67l104.27 0c51.59,0 93.65,42.07 93.65,93.65l0 48.03c0,9.87 -1.54,19.4 -4.39,28.34 1.08,5.69 1.66,11.56 1.66,17.57l0 45.59c0,5.01 -0.4,9.93 -1.16,14.73 5.23,11.67 8.15,24.59 8.15,38.16l0 48.03c0,51.58 -42.07,93.65 -93.65,93.65l-108.52 0c-10.71,0 -21.01,-1.82 -30.61,-5.16 -21.1,4.63 -44.22,5.16 -65.04,5.16l-72.2 0c-10.81,0 -21.19,-1.85 -30.87,-5.24 -20.05,7.25 -41.19,10.41 -62.55,10.41 -22.34,0 -44.43,-3.39 -65.37,-10.96 -10.1,3.74 -21.03,5.8 -32.41,5.8l-62.62 0c-4.25,0 -8.44,-0.29 -12.54,-0.84 -4.11,0.55 -8.29,0.84 -12.54,0.84l-54.72 0c-5.61,0 -11.1,-0.47 -16.44,-1.39 -5.23,0.91 -10.6,1.39 -16.08,1.39l-52.29 0c-10.81,0 -21.19,-1.85 -30.87,-5.24 -20.05,7.25 -41.2,10.41 -62.55,10.41 -25.89,0 -51.44,-4.55 -75.25,-14.89 -3.68,-1.59 -7.3,-3.31 -10.83,-5.14 -14.85,9.81 -32.07,14.87 -51.07,14.87l-63.89 0c-4.99,0 -9.89,-0.39 -14.66,-1.13 -4.78,0.74 -9.68,1.13 -14.67,1.13l-64.7 0c-8.54,0 -16.73,-1.02 -24.5,-3.04 -13.32,2.32 -26.97,3.04 -40.41,3.04l-31.16 0c-1.39,0 -2.78,-0.03 -4.16,-0.09 -1.46,0.06 -2.92,0.09 -4.4,0.09l-63.88 0c-4.99,0 -9.89,-0.39 -14.67,-1.13 -4.78,0.74 -9.68,1.13 -14.66,1.13l-64.7 0c-9,0 -17.6,-1.13 -25.74,-3.37 -18.43,2.98 -37.86,3.37 -55.62,3.37l-72.2 0c-51.58,0 -93.65,-42.07 -93.65,-93.65l0 -240.45c0,-51.58 42.07,-93.65 93.65,-93.65l62.22 0c23.86,0 48.86,1.69 71.8,8.63 2.38,0.71 4.73,1.49 7.04,2.33 13.19,-7.02 28.26,-10.96 44.22,-10.96l90.44 0c11.99,0 23.47,2.22 34.03,6.29 10.47,-4.06 21.84,-6.29 33.7,-6.29l62.62 0c7.14,0 14.09,0.81 20.77,2.33 6.75,-1.52 13.77,-2.33 20.98,-2.33l90.43 0c18.26,0 35.34,5.13 49.79,14.16 14.36,-8.97 31.3,-14.16 49.41,-14.16l62.62 0c2.97,0 5.91,0.15 8.81,0.42 2.9,-0.27 5.85,-0.42 8.82,-0.42l62.62 0c4.11,0 8.16,0.27 12.13,0.79 3.97,-0.52 8.02,-0.79 12.14,-0.79l52.29 0c6.04,0 11.95,0.55 17.68,1.61 5.6,-1.05 11.37,-1.61 17.28,-1.61l52.29 0c4.25,0 8.44,0.29 12.54,0.84 4.1,-0.55 8.29,-0.84 12.54,-0.84l62.62 0c4.07,0 8.09,0.26 12.03,0.78 3.94,-0.51 7.95,-0.78 12.03,-0.78l62.62 0c2.97,0 5.91,0.15 8.81,0.42 2.91,-0.27 5.85,-0.42 8.82,-0.42l62.62 0c4.11,0 8.16,0.27 12.14,0.79 3.97,-0.52 8.02,-0.79 12.13,-0.79l62.22 0c22.74,0 46.52,1.53 68.55,7.67z"/>
  <path class="fil2" d="M532.02 2069.84l62.31 0c19.45,0 34.35,1.52 44.68,4.56 10.03,3.04 18.23,9.43 24.31,18.55 6.38,9.42 9.42,24.62 9.42,45.29 0,13.98 -2.12,23.71 -6.68,29.18 -4.26,5.77 -13.07,10.03 -25.84,12.76 14.29,3.34 24.31,8.81 29.48,16.41 5.17,7.6 7.6,19.15 7.6,34.96l0 22.19c0,16.42 -1.82,28.27 -5.47,36.17 -3.65,7.9 -9.73,13.07 -17.63,16.11 -8.21,2.73 -24.92,4.25 -49.85,4.25l-72.34 0 0 -240.44zm62.62 41.04l0 53.5c2.74,0 4.56,-0.3 6.08,-0.3 6.08,0 10.03,-1.52 11.55,-4.26 1.52,-3.04 2.43,-11.85 2.43,-26.14 0,-7.6 -0.61,-12.77 -2.13,-15.81 -1.22,-3.04 -3.04,-4.86 -5.17,-5.77 -2.12,-0.61 -6.38,-1.22 -12.76,-1.22zm0 90.89l0 67.48c8.51,-0.3 14.29,-1.82 16.42,-4.25 2.43,-2.43 3.65,-8.51 3.65,-18.24l0 -22.49c0,-10.33 -0.91,-16.72 -3.04,-18.85 -2.13,-2.13 -7.9,-3.34 -17.02,-3.65zm213.08 -131.92l35.87 240.44 -64.14 0 -3.34 -43.16 -22.49 0 -3.34 43.16 -64.74 0 31.61 -240.44 90.58 0zm-33.13 154.72c-3.04,-27.35 -6.08,-61.09 -9.42,-101.22 -6.38,46.2 -10.33,79.94 -11.86,101.22l21.28 0z"/>
  <path class="fil2" d="M938.06 2069.84l0 160.8c0,24.01 -0.31,39.52 -0.61,46.2 -0.61,6.99 -3.04,13.07 -6.99,18.85 -3.95,5.47 -9.43,9.11 -16.42,11.24 -6.69,2.13 -17.02,3.34 -30.7,3.34l-31.3 0 0 -42.25c3.65,0.31 6.38,0.61 8.21,0.61 4.26,0 7.6,-1.22 10.33,-3.34 2.43,-2.12 3.95,-4.86 4.26,-7.9 0.3,-3.34 0.61,-9.43 0.61,-18.55l0 -169 62.62 0zm132.23 0l35.87 240.44 -64.14 0 -3.34 -43.16 -22.49 0 -3.34 43.16 -64.74 0 31.61 -240.44 90.58 0zm-33.13 154.72c-3.04,-27.35 -6.08,-61.09 -9.42,-101.22 -6.38,46.2 -10.33,79.94 -11.86,101.22l21.28 0zm275.09 -154.72l0 160.8c0,18.24 -0.61,31 -1.83,38.3 -1.22,7.3 -4.56,14.89 -10.33,22.8 -6.08,7.9 -13.67,13.68 -23.1,17.63 -9.73,3.95 -20.98,6.08 -33.74,6.08 -14.59,0 -27.05,-2.43 -37.99,-7.3 -10.94,-4.56 -19.15,-10.94 -24.62,-18.54 -5.47,-7.6 -8.82,-15.5 -9.73,-24.01 -0.91,-8.51 -1.52,-26.44 -1.52,-53.5l0 -142.26 62.62 0 0 180.25c0,10.64 0.61,17.32 1.82,20.06 0.91,3.04 3.34,4.56 6.68,4.56 3.95,0 6.39,-1.52 7.6,-4.87 0.91,-3.34 1.52,-10.94 1.52,-22.79l0 -177.22 62.62 0zm163.83 0l0 240.44 -54.71 0 -32.53 -109.43 0 109.43 -52.28 0 0 -240.44 52.28 0 34.96 108.21 0 -108.21 52.28 0zm87.85 0l0 240.44 -62.62 0 0 -240.44 62.62 0zm166.88 0l0 160.8c0,18.24 -0.61,31 -1.83,38.3 -1.22,7.3 -4.56,14.89 -10.33,22.8 -6.08,7.9 -13.67,13.68 -23.1,17.63 -9.73,3.95 -20.98,6.08 -33.74,6.08 -14.59,0 -27.05,-2.43 -37.99,-7.3 -10.94,-4.56 -19.15,-10.94 -24.62,-18.54 -5.47,-7.6 -8.82,-15.5 -9.73,-24.01 -0.91,-8.51 -1.52,-26.44 -1.52,-53.5l0 -142.26 62.62 0 0 180.25c0,10.64 0.61,17.32 1.82,20.06 0.91,3.04 3.34,4.56 6.68,4.56 3.95,0 6.39,-1.52 7.6,-4.87 0.91,-3.34 1.52,-10.94 1.52,-22.79l0 -177.22 62.62 0zm24.31 0l62.31 0c19.45,0 34.35,1.52 44.68,4.56 10.03,3.04 18.23,9.43 24.31,18.55 6.38,9.42 9.42,24.62 9.42,45.29 0,13.98 -2.12,23.71 -6.68,29.18 -4.26,5.77 -13.07,10.03 -25.84,12.76 14.29,3.34 24.31,8.81 29.48,16.41 5.17,7.6 7.6,19.15 7.6,34.96l0 22.19c0,16.42 -1.82,28.27 -5.47,36.17 -3.65,7.9 -9.73,13.07 -17.63,16.11 -8.21,2.73 -24.92,4.25 -49.85,4.25l-72.34 0 0 -240.44zm62.62 41.04l0 53.5c2.74,0 4.56,-0.3 6.08,-0.3 6.08,0 10.03,-1.52 11.55,-4.26 1.52,-3.04 2.43,-11.85 2.43,-26.14 0,-7.6 -0.61,-12.77 -2.13,-15.81 -1.22,-3.04 -3.04,-4.86 -5.17,-5.77 -2.12,-0.61 -6.38,-1.22 -12.76,-1.22zm0 90.89l0 67.48c8.51,-0.3 14.29,-1.82 16.42,-4.25 2.43,-2.43 3.65,-8.51 3.65,-18.24l0 -22.49c0,-10.33 -0.91,-16.72 -3.04,-18.85 -2.13,-2.13 -7.9,-3.34 -17.02,-3.65zm105.17 -131.92l104.26 0 0 48.03 -41.64 0 0 45.9 38.91 0 0 45.6 -38.91 0 0 52.89 45.9 0 0 48.03 -108.51 0 0 -240.44z"/>
  <path class="fil3" d="M150.96 1519.44c50.88,-0.24 101.99,-0.52 153.1,-0.75 0,34.21 0,68.35 0,102.55 -20.58,1.09 -40.93,2.18 -61.28,3.34 0,33.63 0,67.31 0,100.93 18.99,-1.95 37.99,-3.91 57.22,-5.81 0,32.53 0,65.13 0,97.6 -19.22,2.76 -38.22,5.64 -57.22,8.46 0,38.81 0,77.56 0,116.36 22.39,-4.6 45.01,-9.21 67.62,-13.65 0,34.09 0,68.23 0,102.32 -53.15,13.25 -106.29,27.07 -159.44,41.35 0,-92.07 0,-184.25 0,-276.32 0,-92.07 0,-184.25 0,-276.38zm390.56 -1.79c0,77.22 0,154.49 0,231.65 0,77.21 0,154.48 0,231.64 -26.91,5.18 -53.82,10.47 -80.51,16 -8.15,-34.66 -16.08,-69.77 -23.98,-105.02 -7.94,-35.46 -15.83,-71.23 -23.75,-107.22 0,37.08 0,74.16 0,111.19 0,37.01 0,74.09 0,111.12 -25.78,5.76 -51.33,11.46 -76.89,17.55 0,-84.29 0,-168.7 0,-252.99 0,-84.3 0,-168.71 0,-253.06 25.56,-0.11 51.11,-0.23 76.89,-0.34 8.37,36.55 17.17,72.79 25.56,108.76 8.34,35.77 17.19,71.17 25.78,106.41 0,-35.94 0,-71.8 0,-107.68 0,-35.88 0,-71.8 0,-107.72 25.55,-0.12 51.11,-0.18 76.89,-0.3zm247.18 156.04c-30.76,1.61 -61.51,3.22 -92.04,4.89 0,-13.18 0,-26.43 0,-39.67 0,-25.1 -0.68,-40.7 -2.49,-46.98 -1.81,-6.33 -5.88,-9.31 -12.21,-9.16 -5.43,0.13 -9.26,2.9 -11.31,8.47 -2.02,5.48 -2.94,19.52 -2.94,42.09 0,35.35 0,70.65 0,105.95 0,35.3 0,70.65 0,105.94 0,19.76 0.9,32.71 2.94,38.75 2.03,5.99 5.88,8.6 11.98,7.77 6.56,-0.89 10.96,-4.95 13.35,-12.27 2.36,-7.25 3.39,-21.19 3.39,-41.51 0,-17.28 0,-34.55 0,-51.77 -6.11,0.58 -11.99,1.15 -17.87,1.74 0,-22.23 0,-44.45 0,-66.68 35.73,-2.59 71.46,-4.95 107.19,-7.19 0,37.94 0,75.94 0,113.88 0,37.95 0,75.89 0,113.83 -19.45,2.54 -38.67,5.19 -57.9,7.84 -2.94,-9.85 -5.65,-19.86 -8.36,-29.89 -6.33,14.28 -14.27,25.41 -23.75,33.68 -9.52,8.31 -20.58,13.47 -33.47,15.55 -15.38,2.48 -29.89,0.24 -43.42,-7.02 -13.38,-7.19 -23.51,-17.46 -30.53,-30.58 -7,-13.08 -11.41,-27.38 -13.12,-42.89 -1.69,-15.41 -2.49,-38.86 -2.49,-70.3 0,-22.63 0,-45.26 0,-67.89 0,-22.57 0,-45.25 0,-67.94 0,-43.59 1.81,-75.32 5.43,-95.18 3.62,-19.86 13.98,-38.13 31.21,-54.57 17.15,-16.38 39.58,-24.36 66.94,-24.36 26.68,0 49.01,6.95 66.71,20.32 17.8,13.45 29.5,28.91 34.82,47.21 5.3,18.21 7.92,44.68 7.92,79.63 0,6.1 0,12.2 0,18.31zm35.96 -156.9c21.48,-0.06 43.19,-0.13 64.91,-0.17 43.42,-0.08 72.81,1.81 87.97,5.58 15.38,3.83 27.8,13.56 37.54,29.19 9.71,15.57 14.47,40.54 14.47,74.74 0,31.27 -3.39,52.4 -10.18,63.39 -6.78,11 -20.35,17.85 -40.25,20.73 18.09,4.49 30.26,11 36.64,19.46 6.29,8.35 10.08,16.22 11.53,23.27 1.48,7.18 2.26,27 2.26,59.48 0,17.67 0,35.4 0,53.08 0,17.68 0,35.42 0,53.1 -28.49,1.83 -56.99,4.03 -85.25,6.5 0,-22.62 0,-45.26 0,-67.94 0,-22.63 0,-45.32 0,-68 0,-21.82 -1.52,-35.19 -4.53,-40.42 -2.88,-5.03 -10.62,-7.31 -23.07,-6.74 0,30.92 0,61.84 0,92.76 0,30.92 0,61.84 0,92.71 -30.76,3.16 -61.51,6.33 -92.04,9.96 0,-70.07 0,-140.26 0,-210.33 0,-70.08 0,-140.21 0,-210.34zm92.04 69.9c0,30.52 0,60.98 0,91.44 10.18,-0.35 17.42,-2.17 21.48,-5.58 4.08,-3.44 6.11,-14.23 6.11,-32.19 0,-7.54 0,-15.03 0,-22.51 0,-12.96 -1.99,-21.55 -5.88,-25.45 -4.03,-4.05 -11.31,-5.88 -21.71,-5.71zm148.36 -70.29c51.11,-0.07 102.22,-0.12 153.33,-0.12 0,26.25 0,52.57 0,78.82 -20.58,0.06 -40.93,0.18 -61.28,0.29 0,25.22 0,50.44 0,75.66 18.99,-0.24 37.99,-0.47 57.22,-0.59 0,24.99 0,49.98 0,74.85 -19.22,0.18 -38.22,0.51 -57.22,0.87 0,29.01 0,58.09 0,87.17 22.39,-0.58 45.01,-1.03 67.62,-1.26 0,26.31 0,52.57 0,78.82 -53.37,1.14 -106.52,2.88 -159.66,5.41 0,-66.61 0,-133.29 0,-199.96 0,-66.63 0,-133.3 0,-199.97zm390.79 0c0,66.84 0,133.75 0,200.54 0,66.84 0,133.75 0,200.54 -26.91,-1.78 -53.82,-3.39 -80.51,-4.54 -8.15,-30.35 -16.04,-60.7 -23.98,-90.98 -7.9,-30.17 -15.83,-60.28 -23.75,-90.28 0,29.95 0,59.88 0,89.83 0,29.88 0,59.88 0,89.76 -25.78,-0.34 -51.33,-0.69 -76.89,-0.57 0,-65.7 0,-131.45 0,-197.21 0,-65.7 0,-131.45 0,-197.21 25.56,0 51.11,0 76.89,0 8.37,29.65 17.2,59.42 25.56,89.14 8.37,29.76 17.19,59.65 25.78,89.54 0,-29.78 0,-59.54 0,-89.25 0,-29.78 0,-59.6 0,-89.43 25.55,0.05 51.11,0.05 76.89,0.12zm195.39 0.4c8.59,70.25 17.43,140.95 26.01,211.94 8.62,71.33 17.64,143.14 26.46,215.41 -31.44,-4.26 -62.64,-8.35 -93.85,-12.09 -1.81,-25.04 -3.39,-50.03 -4.98,-75.02 -11.08,-1.05 -22.16,-2.08 -33.24,-3.05 -1.81,24.47 -3.39,48.88 -4.98,73.23 -31.66,-3.17 -63.32,-6.05 -94.98,-8.69 7.69,-66.51 15.39,-133.23 23.07,-200.08 7.7,-67.02 15.61,-134.38 23.52,-201.93 44.33,0.06 88.65,0.17 132.98,0.29zm-48.85 266.59c-2.26,-23.6 -4.52,-50.03 -6.78,-79.17 -2.27,-29.13 -4.75,-61.09 -7.24,-95.75 -4.52,39.49 -8.36,73.64 -11.08,102.43 -2.71,28.68 -4.98,52.11 -6.1,70.25 10.4,0.75 20.81,1.5 31.21,2.24zm117.15 -266.42c22.84,0.06 45.68,0.16 68.75,0.23 44.32,0.16 74.18,2.78 89.78,8.12 15.82,5.42 27.59,14.17 35.73,26.43 8.14,12.26 13.36,25.96 15.38,40.88 2.05,15.14 2.94,44.56 2.94,88.56 0,27.06 0,54.13 0,81.18 0,27.01 0,54.08 0,81.13 0,41.63 -1.47,69.16 -4.52,82.69 -3.06,13.54 -8.08,23.77 -15.38,30.34 -7.41,6.68 -16.73,10.39 -27.59,11.69 -10.85,1.3 -27.35,-0.19 -49.3,-3.79 -38.66,-6.36 -77.34,-12.33 -115.79,-17.97 0,-71.51 0,-143.14 0,-214.71 0,-71.51 0,-143.2 0,-214.77zm92.04 75.94c0,48.66 0,97.37 0,146.02 0,48.66 0,97.37 0,145.97 12.89,1.78 20.93,-0.61 23.98,-6.91 3.07,-6.36 4.52,-24.42 4.52,-54.36 0,-29.02 0,-58.04 0,-87.06 0,-29.02 0,-58.09 0,-87.17 0,-20.21 -0.34,-33.32 -1.36,-39.09 -1.02,-5.79 -3.39,-9.96 -7.01,-12.78 -3.62,-2.83 -10.18,-4.32 -20.13,-4.61zm364.33 223.87c0,51.13 -0.91,87.06 -2.49,108.01 -1.59,21.07 -6.91,39.59 -15.61,55.5 -8.71,15.93 -20.79,27 -35.73,33.39 -14.92,6.39 -32.34,7.4 -52.24,3.52 -18.99,-3.71 -35.93,-11.24 -50.88,-22.34 -15.12,-11.24 -27.05,-25.88 -36.18,-43.93 -9.19,-18.16 -14.82,-36.83 -16.51,-56.37 -1.7,-19.56 -2.49,-53.56 -2.49,-101.8 0,-26.71 0,-53.49 0,-80.26 0,-47.16 0.79,-80.42 2.49,-99.96 1.7,-19.61 6.79,-37.41 15.6,-53.54 8.83,-16.17 20.82,-28.63 35.73,-37.43 14.94,-8.82 32.34,-13.36 52.24,-13.36 18.77,0 35.76,4.35 50.88,13.18 14.95,8.74 27.14,22.04 36.18,39.91 9.05,17.89 14.59,37.43 16.28,58.32 1.7,21.1 2.71,57.75 2.71,110.09 0,29.03 0,58.1 0,87.07zm-92.04 -171.99c0,-22.8 -0.9,-37.43 -2.71,-43.88 -1.81,-6.39 -5.43,-9.66 -10.86,-9.84 -4.75,-0.16 -8.35,2.26 -10.85,7.31 -2.47,5.01 -3.62,19.97 -3.62,44.9 0,37.83 0,75.72 0,113.49 0,37.77 0,75.65 0,113.42 0,28.16 0.61,45.69 2.26,52.4 1.74,7.06 5.43,10.89 11.53,11.86 6.11,0.99 10.07,-2.19 11.76,-9.56 1.7,-7.38 2.49,-25.56 2.49,-54.46 0,-37.61 0,-75.2 0,-112.79 0,-37.66 0,-75.26 0,-112.85zm320.91 41.85c-28.5,-1.66 -56.99,-3.34 -85.26,-5 0,-13.19 0,-26.43 0,-39.62 0,-18.48 -1.2,-30.35 -3.39,-35.59 -2.11,-5.06 -5.65,-7.65 -10.85,-7.82 -5.43,-0.18 -9.57,2.94 -12.44,9.72 -2.78,6.57 -4.3,16.71 -4.3,30.47 0,17.67 1.8,31.04 4.98,40.13 3.16,9.04 11.84,20.36 26.01,34.32 40.79,40.16 66.3,73.44 76.9,98.63 10.66,25.36 16.05,65.18 16.05,119.24 0,39.33 -3.13,67.86 -9.05,85.63 -5.84,17.52 -17.15,31.08 -33.92,40.42 -16.93,9.43 -36.42,11.82 -59.02,7.42 -24.44,-4.76 -45.45,-15.83 -62.87,-32.99 -17.18,-16.93 -28.48,-36.34 -33.92,-58.33 -5.41,-21.88 -8.14,-52.16 -8.14,-90.62 0,-11.17 0,-22.46 0,-33.69 28.27,3.57 56.76,7.14 85.25,10.65 0,21.48 0,42.96 0,64.49 0,19.86 1.3,32.86 3.62,38.86 2.42,6.26 6.57,9.57 12.67,10.54 6.11,0.98 10.7,-1.73 13.79,-8.64 3.02,-6.73 4.3,-17.44 4.3,-31.66 0,-31.61 -2.66,-52.68 -8.36,-62.93 -5.83,-10.47 -20.09,-28.4 -42.97,-53.44 -22.8,-24.94 -37.77,-42.66 -45.23,-53.38 -7.47,-10.7 -13.67,-25.05 -18.55,-43.07 -4.85,-17.92 -7.24,-40.53 -7.24,-67.77 0,-39.38 3.51,-67.98 10.4,-86.07 6.9,-18.12 18.12,-32.3 33.47,-42.61 15.4,-10.36 33.92,-15.72 55.63,-15.72 23.98,0 44.17,5.81 61.07,17.78 16.8,11.92 27.8,27.24 33.24,45.67 5.41,18.32 8.14,49.4 8.14,93.16 0,7.31 0,14.62 0,21.81z"/>
  <path class="fil0" d="M1008.8 1194.01c-33.87,-1.08 -89.77,-2.26 -90.76,5.34 -8.02,61.61 -33.9,139.6 -78.92,183.36 -44.38,49.8 -104.02,82.92 -170.77,89.54 -13.13,1.3 -26.5,1.91 -39.66,0.71 -29.48,-1.85 -58.24,-8.96 -85.25,-20.87 -0.05,-0.02 -0.1,-0.04 -0.15,-0.07 -15.24,-6.34 -29.36,-14.48 -42.85,-23.96 -0.16,-0.11 -0.32,-0.22 -0.47,-0.34 -48.66,-33.6 -85.36,-82.22 -107.44,-136.85 -0.08,-0.19 -0.16,-0.38 -0.25,-0.57 -7.13,-17.35 -12.62,-35.28 -16.5,-53.63 -0.05,-0.25 -0.1,-0.49 -0.14,-0.72 -4.39,-20.25 -6.94,-40.86 -7.69,-61.55 -0.04,-0.51 -0.06,-1.02 -0.07,-1.54 -0.32,-17.09 0.15,-32.87 1.9,-49.9 0.03,-0.29 0.06,-0.58 0.1,-0.88 1.98,-17.8 5.33,-35.45 10.05,-52.73 4.84,-17.69 10.8,-35.07 18.75,-51.62 0.08,-0.16 0.16,-0.33 0.25,-0.5 7.55,-16.32 16.47,-31.98 26.6,-46.84 5.99,-8.79 12.45,-17.27 19.4,-25.32 0.2,-0.24 0.41,-0.47 0.61,-0.69 14.15,-16.48 30.13,-31.34 47.56,-44.31 8.41,-6.27 17.18,-12.04 26.33,-17.17 0.25,-0.14 0.49,-0.27 0.73,-0.4 18.94,-10.73 39.19,-18.93 60.18,-24.69 32.61,-8.95 70.08,-10.57 103.43,-5.17 0.54,0.09 1,0.17 1.53,0.3l14.96 3.37c-1.24,-9.98 -0.13,-20.15 4.39,-29.42 7.9,-16.21 23.89,-24.84 41.73,-24.54l19.38 0.09c0.2,-9.66 5.8,-18.44 14.95,-22.65 78.75,-36.3 147.65,-65.37 216.81,-86.1 -1.13,-5.23 -0.54,-10.73 1.84,-15.96 44.17,-96.99 91.7,-192.37 141.4,-286.63 8.65,-21.88 28.68,-32.63 51.07,-37.05 0.54,-0.11 1.01,-0.18 1.56,-0.25l287.61 -38.45 65.66 -10.76c1.6,-0.26 2.98,-0.37 4.6,-0.33 120.4,2.09 240.58,7.47 360.09,22.88 21.58,0.94 39.52,12.62 49.59,31.87l135.81 259.33c0.9,0.01 1.82,0.05 2.74,0.14l79.55 8.18c0.48,0.04 0.88,0.1 1.36,0.17 17.45,2.74 28.62,10.46 34.85,27.53 0.07,0.18 0.12,0.33 0.19,0.51 9.44,27.69 13.82,58.45 17.62,87.41 2.4,18.29 -8.14,35.59 -25.91,40.99 -0.41,0.13 -0.75,0.22 -1.16,0.32 -15.09,3.83 -30.48,6.1 -45.99,7.09 -6.02,18.01 -12.47,35.95 -19.59,53.62 13.13,-7.2 26.97,-13.03 41.32,-17.43 28.47,-8.74 61.14,-10.44 90.51,-5.33 0.54,0.07 1.08,0.16 1.62,0.27 11.44,2.26 21.07,4.96 32.09,8.7 0.45,0.15 0.89,0.32 1.33,0.49 52.73,19.46 94.92,59.43 123.76,107.02 32.31,53.34 48.12,115.99 48.71,178.13 0.16,4.45 0.25,8.91 0.25,13.37 0,71.18 -21.3,149.44 -70.4,202.81 -37.47,47 -89.37,80.77 -149.81,87.47 -11.67,1.29 -23.58,1.88 -35.28,0.68 -26.27,-1.85 -51.63,-8.93 -75.22,-20.57 -0.03,-0.02 -0.07,-0.03 -0.1,-0.05 -13.55,-6.3 -25.95,-14.33 -37.68,-23.56 -0.15,-0.11 -0.3,-0.24 -0.44,-0.34 -43.27,-33.44 -74.42,-81.03 -92.89,-132.15 -0.08,-0.19 -0.15,-0.39 -0.22,-0.59 -5.02,-13.65 -9.07,-27.63 -12.18,-41.83 -0.49,0.37 -1,0.74 -1.52,1.09 -7.44,4.98 -16.15,5.8 -24.39,2.28l-151.99 -64.94c-1.52,-0.63 -2.94,-1.36 -4.25,-2.17 -7.03,8.68 -9.2,41.17 2.44,52.02 4.94,7.21 5.92,15.63 2.78,23.79 -11.22,29.04 -27.19,56.9 -48.34,79.88 -37.47,46.97 -89.34,80.7 -149.76,87.4 -11.67,1.29 -23.57,1.89 -35.27,0.7 -23.28,-1.64 -45.85,-7.4 -67.1,-16.78 -12.5,24.63 -28.59,47.29 -48.45,66.57 -44.39,49.79 -104.06,82.9 -170.81,89.51 -13.13,1.3 -26.51,1.91 -39.67,0.7 -29.49,-1.84 -58.26,-8.94 -85.28,-20.86 -0.05,-0.03 -0.1,-0.04 -0.15,-0.07 -15.25,-6.35 -29.37,-14.49 -42.87,-23.97 -0.15,-0.11 -0.31,-0.22 -0.47,-0.33 -48.67,-33.6 -85.39,-82.22 -107.47,-136.85 -0.09,-0.2 -0.17,-0.39 -0.25,-0.59 -7.13,-17.35 -12.63,-35.27 -16.51,-53.63 -0.05,-0.24 -0.09,-0.48 -0.14,-0.71 -4.39,-20.25 -6.94,-40.87 -7.69,-61.56 -0.04,-0.5 -0.06,-1.02 -0.07,-1.54 -0.18,-9.35 -0.11,-18.33 0.26,-27.32zm840.02 -771.06l1.97 69.12c-20.74,-43.5 -89.75,-47.04 -184.85,-29.41l5.88 -21.57 177 -18.14zm-747.46 246.26c61.85,-10.52 127.61,-14.44 203.71,-11.08 8.39,0.38 15.69,4.63 20.11,11.14l1.26 -0.31 98.21 -224.47 -216.74 6.91 -106.55 217.81zm900.85 -37.81l-45.79 -90.33 0.74 94.3c2.73,-0.78 5.58,-1.25 8.53,-1.44l36.52 -2.53zm-515.42 -93.71l-58.23 132.31c2.69,0.79 5.37,1.97 8.01,3.54 0.94,0.56 1.71,1.09 2.57,1.76 11.09,8.6 20.78,17.98 29.17,28.01 -2.1,-17.52 -1.87,-37.07 6.97,-52.74 6.1,-10.82 15.21,-17.94 25.93,-21.58l-14.43 -91.3z"/>
  <path class="fil4" d="M1801.92 947.33l-44.7 133.15 -219.57 14.94c-17.53,-33.57 2.26,-27.81 -48.74,-101.98l313 -46.11z"/>
  <path class="fil5" d="M1543.77 1115.9l4.27 35.11 213.71 -12.36c24.51,-2.72 37.57,-6.49 44.64,-22.51l124.62 -343.72 179.27 -8.57 -53.19 141.72c8.83,11.39 24.07,3.08 31.94,-11.49 20.95,-38.8 37.44,-82.42 52.18,-128.5 20.19,-0.01 39.73,-2.15 58.49,-6.9 4.51,-1.37 8.86,-5.93 7.92,-13.07 -4.14,-31.5 -8.62,-59.45 -16.47,-82.45 -2.97,-8.13 -6.58,-9.69 -14.71,-10.96l-79.55 -8.17 31.82 72.5c4.5,11.04 -3.21,11.15 -6.72,5.32l-183.77 -350.93c-6.11,-11.65 -16.27,-17.92 -28.91,-18.16 -119.89,-15.53 -238.55,-20.75 -358.46,-22.83l-66.04 10.83 -287.99 38.5c-15.96,3.14 -28.04,9.57 -32.56,22.39 -49.29,93.44 -96.83,188.64 -141.49,286.72l43.34 -5.56 129.54 -264.81c3.29,-6.27 7.74,-7.1 13.79,-7.82l272.54 -32.62 -137.08 313.29 -17.82 4.4 -391.24 133.65 -189.73 -0.89c-17.83,-0.38 -25.06,15.49 -17.72,35.49l80.53 215.47c2.45,5.82 10.48,12.17 15.72,12.93l184.37 23.46c8.62,1.98 11.2,-2.08 8.99,-15.6l-41.09 -240.26 359.83 -86.54c8.96,-1.48 14.51,-4.19 19.53,5.06l97.17 181.54c6.88,10.49 11.31,10.73 27.58,8.48l362.75 -50.22 -67.72 176.08c-2.91,6.81 -7.02,9.63 -13.25,10.01l-219.02 11.95zm-787.05 -245.47l182.49 -3.82 42.78 211.67 -154.97 -19.08 -70.3 -188.76zm1175.55 -133.26l144.9 -14.71 -147.3 -290.57 2.39 305.29zm-456.09 185.94l373.73 -52.79 37.51 -106.58 -1.48 -375.11c-113.92,-15.97 -233.26,-18.41 -354.05,-17.19l-155.99 354.45 100.27 197.23z"/>
  <path class="fil4" d="M791.49 803.11l143.7 2.96c8.97,-0.01 16.88,-2.5 24.89,-5.42 111.81,-35.45 229.62,-74.13 343.85,-116.87 -208.2,-9.19 -334.28,37.2 -512.45,119.32z"/>
  <polygon class="fil4" points="788.59,893.46 919.95,890.56 953.89,1051.66 840.69,1038.25 "/>
  <path class="fil4" d="M1468.78 865.14c6.81,10.85 11.85,22.98 13.68,37.47l99.83 -15.03c-35.16,-12.6 -73.37,-19.36 -113.51,-22.44z"/>
  <path class="fil4" d="M1957.64 714.27l0.89 -47.72c-0.01,-4.44 3.67,-6.71 8.8,-6.98l37.69 -2.62c4.83,-0.45 8.59,-0.1 11.85,4.61l23.08 39.4c-29.26,1.17 -57.05,4.96 -82.31,13.31z"/>
  <path class="fil6" d="M1404.13 925.38l-69.41 -121.32 -196.04 38.08 40.03 78.55c82.87,-28.5 158,-26.91 225.42,4.69z"/>
  <path class="fil4" d="M1091.82 878.96l26.5 -17.88c-3.97,-9.93 -9.09,-14.69 -16.58,-8.81 -18.33,-0.56 -22.21,12.16 -9.92,26.69z"/>
  <path class="fil4" d="M1099.23 899.35c6.47,-8.36 14.16,-14.01 23.49,-15.93 2,-0.71 11.8,14.64 10,16.74 -4.32,5.66 -15.25,9.9 -22.42,17.28 -5.76,-5.05 -9.91,-10.87 -11.07,-18.1z"/>
  <path class="fil4" d="M1012.59 984.16c18.92,4.38 36.77,11.15 54.04,19.24 12.89,-6.97 13.82,15.79 5.8,15.27 -16.18,-3.86 -17.1,6 -25.65,4.88 -23.95,-6.06 -36.3,-18.67 -34.19,-39.39z"/>
  <path class="fil4" d="M781.15 1063.01l11.64 20.34 -92.78 51.22c-11.89,4.88 -20.57,-8.62 -8.68,-18.35 29.44,-21.76 59.03,-42.25 89.81,-53.21z"/>
  <path class="fil4" d="M810.09 1118.43c12.33,0.91 21.15,4.82 27.5,10.85 -34.36,11.92 -71.86,37.11 -99.4,44.41 -13.21,3.63 -21.49,-0.14 -24.98,-11.11 30.37,-11.51 65.39,-27.67 96.88,-44.15z"/>
  <path class="fil6" d="M741.36 1044.59c-28.23,-20.98 -76.65,-20.77 -106.56,22.25 -51.62,74.23 -41.35,205.86 57.57,227.16l37.1 -27.45c-72.01,-22.26 -98.51,-65.97 -90.31,-135 11.32,-56.42 48.05,-82.18 102.2,-86.96z"/>
  <path class="fil6" d="M667.94 1129.93c-15.59,56.92 1.33,91.37 44.95,107.4l17.36 -25.84c-32.93,-17.56 -55.22,-43.54 -62.31,-81.55z"/>
  <polygon class="fil5" points="1523.23,448.8 1551.58,632.95 1528.02,633.96 1505.86,493.73 "/>
  <path class="fil4" d="M1333.19 1188.68c13.47,0 24.37,14.84 24.37,33.13 0,18.3 -10.91,33.14 -24.37,33.14 -13.46,0 -24.37,-14.83 -24.37,-33.14 0,-18.29 10.91,-33.13 24.37,-33.13z"/>
  <path class="fil6" d="M1345.23 1098.98c45.24,0 81.92,54.07 81.92,120.77 0,66.71 -36.68,120.79 -81.92,120.79 -45.25,0 -81.93,-54.08 -81.93,-120.79 0,-66.7 36.68,-120.77 81.93,-120.77zm-4.14 51.85c26.02,0 47.11,31.74 47.11,70.9 0,39.15 -21.1,70.89 -47.11,70.89 -26.02,0 -47.11,-31.74 -47.11,-70.89 0,-39.15 21.09,-70.9 47.11,-70.9z"/>
  <path class="fil7" d="M1353.97 980.58c100.56,0 182.08,107.22 182.08,239.47 0,132.25 -81.52,239.47 -182.08,239.47 -100.56,0 -182.08,-107.22 -182.08,-239.47 0,-132.25 81.52,-239.47 182.08,-239.47zm-7.36 82.07c63.96,0 115.8,71.07 115.8,158.75 0,87.66 -51.85,158.74 -115.8,158.74 -63.96,0 -115.81,-71.07 -115.81,-158.74 0,-87.68 51.85,-158.75 115.81,-158.75z"/>
  <path class="fil8" d="M1284.92 923.63c137.63,0 249.37,126.49 250.84,283.16 -5.24,-126.08 -84.62,-226.21 -181.8,-226.21 -100.56,0 -182.08,107.22 -182.08,239.47 0,132.25 81.52,239.47 182.08,239.47 40.17,0 77.3,-17.12 107.41,-46.11 -45.33,51.19 -107.65,82.81 -176.45,82.81 -138.55,0 -250.88,-128.18 -250.88,-286.3 0,-158.11 112.32,-286.29 250.88,-286.29z"/>
  <path class="fil9" d="M1320.44 926.48c1.28,17.4 6.37,27.13 15.49,29.05 4.77,1.01 8.99,0.76 12.67,-1.45 4.39,-2.63 6.15,-9.16 5.34,-19.48 -11.04,-3.34 -22.18,-6.16 -33.5,-8.12z"/>
  <path class="fil9" d="M1227.88 931.05c11.84,7.26 16.17,16.59 24.25,24.89 15.18,18.4 37.77,8.85 29.96,-8.56 -5.03,-11.19 -16.25,-18.06 -30.77,-21.21 -7.96,1.09 -15.78,2.73 -23.44,4.88z"/>
  <path class="fil9" d="M1172.69 953.8l10.07 23.83c11.59,-4.73 22.94,-4.17 34.78,-3.8 9.78,0.3 28.16,21.77 6.79,28.55 -6.62,0.3 -16.1,-5.85 -24.33,-6.74 -5.73,-0.62 -12.86,0.59 -20.64,3.26 -11.95,4.67 -21.4,6.16 -22.95,-1.81 -1.14,-10.24 -3.43,-19.67 -7.27,-27.94 7.22,-5.51 15.08,-10.61 23.55,-15.35z"/>
  <path class="fil9" d="M1105.07 1010.33c5.82,10.9 10.97,23.75 15.52,38.33 1.78,4.29 5.53,5.59 11.22,3.95l19.75 -6.36c8.1,-2.64 14.89,-2.46 19.89,1.64l8.84 10.42c4.02,4.9 3.68,9.09 -6.42,11.72l-51.96 14.4c-7.27,2.05 -12.39,-0.87 -15.61,-8.22l-18.86 -42.87c5.55,-8.26 11.46,-15.87 17.63,-23.01z"/>
  <path class="fil9" d="M1062.51 1077.34l23.65 46.91c5.47,10.77 11.97,14.63 19.67,10.4 10.56,-5.14 21.27,-8.45 32.22,-8.74 14.53,-0.2 24.96,18.56 3.69,25.06 -11.92,3.77 -23.61,11.19 -35.42,16.79 -13.09,6.28 -22.97,4.69 -28.04,-8.75 -7.9,-15.29 -19.12,-26.47 -32.92,-34.4 4.48,-16.35 9.91,-32.24 17.14,-47.27z"/>
  <path class="fil9" d="M1035.99 1174.05c15.56,14.88 32.01,28.76 46.66,44.62 6.17,6.94 12.93,7.17 20.17,1.83 11.93,-8.87 23.64,-14.05 34.63,-6.22 8.82,6.73 6.87,17.75 -1.58,23.21l-33.07 20.26c-6.18,3.4 -14.66,1.84 -20.91,-5.43 -14.32,-12.75 -30.86,-22.88 -47.67,-31.49 -0.32,-15.75 0.19,-31.35 1.77,-46.8z"/>
  <path class="fil9" d="M1041.58 1279.83c14.32,4.18 24.46,14.07 35.57,24.67 16.89,12.11 30.62,12.41 41.57,2.37 10.49,-11.77 20.75,-14.66 30.8,-9.78 9.89,5.13 9.62,13.38 -2.15,25.17l-25.56 18.94c-6.01,3.32 -12.41,4.17 -19.4,1.19 -13.88,-6.02 -30.87,-11.26 -45.7,-13.4 -6.72,-16.36 -11.66,-32.75 -15.13,-49.17z"/>
  <path class="fil9" d="M1158.04 1376.95c13.12,-12.11 34.69,0.34 23.62,21.17 -8.8,18.24 -30.34,26 -64.99,23.77 -11.72,-11.89 -21.99,-24.88 -31.17,-38.68 11.16,-0.07 21.91,2.61 32.49,7.22 7.72,3.43 15.62,2.66 23.63,-0.78l16.42 -12.7z"/>
  <path class="fil9" d="M1213.26 1427.4c9.41,-9.51 17.23,-8.6 23.67,1.34 5.84,13.44 3.59,22.65 -3.83,29.13 -12.85,9.56 -25,12.89 -39.24,18.91 -14.15,-5.87 -26.5,-13.21 -37.95,-21.26 13.93,-2.75 28.27,-2.32 39.59,-11.72l17.76 -16.4z"/>
  <path class="fil9" d="M1271.43 1495.82c7.12,-18.98 15.7,-31.79 28.42,-31.27 8.28,0.33 9.54,11.56 6.73,30.63 -12.49,1.32 -24.3,1.67 -35.15,0.64z"/>
  <path class="fil4" d="M2279.87 1099.31c11.58,0 20.96,14.28 20.96,31.89 0,17.61 -9.39,31.89 -20.96,31.89 -11.58,0 -20.96,-14.27 -20.96,-31.89 0,-17.61 9.38,-31.89 20.96,-31.89z"/>
  <path class="fil6" d="M2290.23 1012.99c38.91,0 70.46,52.04 70.46,116.23 0,64.19 -31.55,116.23 -70.46,116.23 -38.91,0 -70.46,-52.04 -70.46,-116.23 0,-64.19 31.55,-116.23 70.46,-116.23zm-3.56 49.89c22.38,0 40.52,30.54 40.52,68.22 0,37.69 -18.14,68.23 -40.52,68.23 -22.38,0 -40.51,-30.54 -40.51,-68.23 0,-37.68 18.13,-68.22 40.51,-68.22z"/>
  <path class="fil7" d="M2297.74 899.06c86.49,0 156.6,103.17 156.6,230.44 0,127.26 -70.11,230.44 -156.6,230.44 -86.49,0 -156.6,-103.18 -156.6,-230.44 0,-127.27 70.11,-230.44 156.6,-230.44zm-6.33 78.97c55.01,0 99.6,68.4 99.6,152.76 0,84.36 -44.6,152.76 -99.6,152.76 -55.01,0 -99.6,-68.4 -99.6,-152.76 0,-84.37 44.6,-152.76 99.6,-152.76z"/>
  <path class="fil8" d="M2238.36 844.26c118.38,0 214.47,121.72 215.74,272.48 -4.5,-121.33 -72.78,-217.67 -156.35,-217.67 -86.49,0 -156.6,103.17 -156.6,230.44 0,127.26 70.11,230.44 156.6,230.44 34.55,0 66.47,-16.48 92.37,-44.37 -38.98,49.25 -92.58,79.68 -151.76,79.68 -119.17,0 -215.76,-123.36 -215.76,-275.51 0,-152.15 96.6,-275.5 215.76,-275.5z"/>
  <path class="fil9" d="M2268.91 847c1.1,16.74 5.47,26.1 13.32,27.95 4.11,0.97 7.73,0.73 10.9,-1.39 3.78,-2.54 5.29,-8.82 4.59,-18.74 -9.49,-3.22 -19.08,-5.93 -28.81,-7.82z"/>
  <path class="fil9" d="M2189.3 851.4c10.19,6.99 13.91,15.96 20.87,23.94 13.05,17.71 32.48,8.53 25.76,-8.23 -4.32,-10.78 -13.97,-17.38 -26.46,-20.42 -6.85,1.06 -13.57,2.63 -20.17,4.7z"/>
  <path class="fil9" d="M2141.84 873.29l8.65 22.94c9.97,-4.56 19.73,-4.02 29.91,-3.67 8.41,0.29 24.22,20.95 5.84,27.48 -5.69,0.27 -13.85,-5.63 -20.92,-6.49 -4.93,-0.6 -11.06,0.56 -17.76,3.14 -10.27,4.49 -18.4,5.93 -19.73,-1.75 -0.98,-9.84 -2.95,-18.92 -6.25,-26.88 6.21,-5.29 12.97,-10.2 20.25,-14.76z"/>
  <path class="fil9" d="M2083.67 927.68c5.01,10.49 9.44,22.86 13.35,36.88 1.53,4.13 4.76,5.39 9.65,3.81l16.99 -6.13c6.96,-2.52 12.81,-2.36 17.1,1.58l7.6 10.03c3.46,4.71 3.17,8.74 -5.52,11.28l-44.69 13.84c-6.25,1.98 -10.66,-0.84 -13.42,-7.91l-16.22 -41.25c4.77,-7.94 9.85,-15.26 15.16,-22.14z"/>
  <path class="fil9" d="M2047.07 992.16l20.35 45.14c4.71,10.37 10.3,14.08 16.92,10.01 9.08,-4.95 18.29,-8.12 27.71,-8.42 12.5,-0.19 21.46,17.86 3.17,24.12 -10.25,3.63 -20.31,10.78 -30.46,16.16 -11.25,6.04 -19.75,4.5 -24.11,-8.42 -6.8,-14.72 -16.45,-25.46 -28.31,-33.1 3.85,-15.74 8.52,-31.03 14.74,-45.49z"/>
  <path class="fil9" d="M2024.27 1085.22c13.37,14.32 27.52,27.68 40.13,42.95 5.31,6.67 11.12,6.9 17.34,1.76 10.26,-8.53 20.34,-13.52 29.78,-5.98 7.59,6.49 5.91,17.07 -1.36,22.34l-28.44 19.5c-5.32,3.27 -12.61,1.77 -17.98,-5.23 -12.32,-12.28 -26.54,-22.02 -40.99,-30.3 -0.27,-15.16 0.16,-30.18 1.52,-45.04z"/>
  <path class="fil9" d="M2029.07 1187.01c12.32,4.03 21.03,13.54 30.59,23.74 14.53,11.66 26.33,11.95 35.76,2.28 9.02,-11.33 17.84,-14.11 26.48,-9.4 8.5,4.94 8.27,12.87 -1.85,24.23l-21.99 18.24c-5.17,3.18 -10.67,4.01 -16.68,1.13 -11.94,-5.79 -26.55,-10.83 -39.3,-12.89 -5.78,-15.75 -10.03,-31.52 -13.01,-47.33z"/>
  <path class="fil9" d="M2129.23 1280.47c11.29,-11.65 29.83,0.33 20.31,20.38 -7.57,17.55 -26.09,25.02 -55.89,22.88 -10.08,-11.45 -18.91,-23.95 -26.81,-37.23 9.6,-0.06 18.84,2.52 27.94,6.95 6.64,3.31 13.43,2.57 20.32,-0.73l14.12 -12.23z"/>
  <path class="fil9" d="M2176.73 1329.03c8.09,-9.15 14.82,-8.28 20.36,1.29 5.02,12.93 3.09,21.79 -3.29,28.03 -11.06,9.2 -21.5,12.4 -33.75,18.21 -12.17,-5.66 -22.79,-12.72 -32.65,-20.47 11.98,-2.65 24.31,-2.23 34.05,-11.27l15.27 -15.79z"/>
  <path class="fil9" d="M2226.75 1394.87c6.13,-18.27 13.5,-30.58 24.44,-30.09 7.12,0.32 8.21,11.12 5.79,29.47 -10.74,1.28 -20.9,1.61 -30.23,0.62z"/>
  <path class="fil7" d="M713.19 932.09c3.94,0 7.85,0.18 11.72,0.49l34.66 89.12 -6.86 6.03c-14.33,-8.71 -30.19,-13.56 -46.88,-13.56 -63.94,0 -115.77,71.07 -115.77,158.74 0,87.67 51.83,158.75 115.77,158.75 54.03,0 99.4,-50.76 112.18,-119.38l74.56 0c-14.7,112.86 -89.41,198.75 -179.38,198.75 -100.52,0 -182.01,-107.22 -182.01,-239.47 0,-132.25 81.49,-239.47 182.01,-239.47z"/>
  <path class="fil8" d="M644.17 875.14c21.33,0 42.04,3.04 61.82,8.77l18.93 48.67c-3.88,-0.32 -7.78,-0.49 -11.72,-0.49 -100.52,0 -182.01,107.22 -182.01,239.47 0,132.25 81.49,239.47 182.01,239.47 40.16,0 77.27,-17.12 107.37,-46.1 -45.31,51.19 -107.61,82.8 -176.39,82.8 -138.5,0 -250.79,-128.18 -250.79,-286.3 0,-158.12 112.28,-286.29 250.79,-286.29z"/>
  <path class="fil9" d="M679.68 877.99c1.28,17.41 6.36,27.14 15.47,29.06 4.77,1 8.99,0.76 12.67,-1.45 1.97,-1.18 3.4,-3.13 4.32,-5.86l-6.11 -15.7c-8.69,-2.44 -17.47,-4.5 -26.35,-6.05z"/>
  <path class="fil9" d="M587.15 882.57c11.83,7.27 16.17,16.59 24.25,24.88 15.17,18.4 37.76,8.86 29.95,-8.55 -5.02,-11.19 -16.24,-18.06 -30.76,-21.22 -7.96,1.09 -15.77,2.73 -23.44,4.88z"/>
  <path class="fil9" d="M531.98 905.32l10.07 23.82c11.59,-4.73 22.93,-4.17 34.76,-3.8 9.78,0.3 28.15,21.77 6.79,28.55 -6.62,0.3 -16.1,-5.85 -24.31,-6.74 -5.74,-0.62 -12.86,0.59 -20.64,3.27 -11.94,4.67 -21.39,6.16 -22.94,-1.82 -1.14,-10.23 -3.43,-19.67 -7.26,-27.94 7.21,-5.5 15.07,-10.6 23.54,-15.34z"/>
  <path class="fil9" d="M464.38 961.84c5.82,10.91 10.97,23.75 15.52,38.33 1.78,4.29 5.53,5.59 11.22,3.95l19.74 -6.37c8.1,-2.63 14.89,-2.45 19.88,1.65l8.83 10.41c4.03,4.89 3.68,9.09 -6.41,11.72l-51.94 14.4c-7.27,2.05 -12.39,-0.87 -15.61,-8.22l-18.85 -42.87c5.55,-8.25 11.46,-15.86 17.62,-23.01z"/>
  <path class="fil9" d="M421.84 1028.84l23.65 46.92c5.47,10.77 11.97,14.63 19.67,10.4 10.56,-5.15 21.26,-8.44 32.2,-8.75 14.53,-0.2 24.95,18.57 3.69,25.06 -11.91,3.77 -23.6,11.2 -35.4,16.8 -13.08,6.27 -22.96,4.67 -28.03,-8.76 -7.91,-15.3 -19.12,-26.46 -32.91,-34.4 4.48,-16.35 9.91,-32.24 17.13,-47.27z"/>
  <path class="fil9" d="M395.33 1125.57c15.55,14.87 31.99,28.75 46.64,44.62 6.17,6.92 12.92,7.17 20.16,1.83 11.92,-8.87 23.64,-14.04 34.62,-6.22 8.82,6.75 6.87,17.75 -1.58,23.23l-33.06 20.26c-6.17,3.4 -14.65,1.83 -20.9,-5.43 -14.31,-12.76 -30.85,-22.88 -47.65,-31.49 -0.32,-15.74 0.19,-31.36 1.77,-46.8z"/>
  <path class="fil9" d="M400.91 1231.34c14.32,4.19 24.45,14.07 35.56,24.67 16.88,12.12 30.6,12.42 41.56,2.38 10.48,-11.77 20.73,-14.66 30.78,-9.77 9.87,5.13 9.61,13.38 -2.16,25.17l-25.55 18.96c-6,3.31 -12.4,4.17 -19.39,1.18 -13.88,-6.01 -30.86,-11.26 -45.68,-13.39 -6.72,-16.37 -11.65,-32.77 -15.13,-49.19z"/>
  <path class="fil9" d="M517.33 1328.46c13.13,-12.11 34.68,0.34 23.62,21.18 -8.8,18.22 -30.33,26 -64.96,23.76 -11.72,-11.89 -21.98,-24.88 -31.16,-38.68 11.16,-0.07 21.9,2.62 32.48,7.21 7.72,3.44 15.61,2.68 23.61,-0.77l16.41 -12.7z"/>
  <path class="fil9" d="M572.53 1378.91c9.4,-9.5 17.22,-8.6 23.66,1.34 5.84,13.44 3.59,22.64 -3.83,29.13 -12.85,9.57 -24.99,12.91 -39.23,18.93 -14.14,-5.89 -26.49,-13.22 -37.94,-21.27 13.93,-2.76 28.26,-2.33 39.58,-11.72l17.75 -16.4z"/>
  <path class="fil9" d="M630.68 1447.33c7.12,-18.99 15.7,-31.78 28.41,-31.28 8.28,0.33 9.54,11.57 6.72,30.63 -12.49,1.32 -24.29,1.68 -35.14,0.65z"/>
  <polygon class="fil4" points="1969.55,819.16 1985.13,794.8 2055.12,934.44 2036.55,962.6 "/>
  <polygon class="fil4" points="1949.57,835.23 1941.6,857.17 1991.03,956.11 2010.06,955.54 "/>
  <polygon class="fil4" points="1895.67,939.77 1889.02,968.68 2009.35,1035.54 2017.07,995.8 "/>
  <polygon class="fil4" points="1853.3,1060.84 1865.07,1029.94 1995.35,1101.4 1995.15,1132.39 "/>
  <path class="fil4" d="M1989.69 1160.72l0.27 20.4 -152.14 -64.99c-4.24,-1.72 2.27,-15.08 10.48,-11.86l141.38 56.44z"/>
  <path class="fil4" d="M1127.65 953.92c6.26,-10.94 15.9,-16.11 28.58,-16.12l-4.86 -8.74c-3.09,-6.97 -6.85,-9.2 -14.19,-4.82 -6.98,4.11 -24.48,3.3 -19.27,13.97l9.75 15.71z"/>
  <path class="fil7" d="M1804.89 1204.19c-26.93,69.69 -77.84,116.71 -136.22,116.71 -46.52,0 -88.3,-29.85 -116.98,-77.25 48.89,24.17 57.99,28.87 102.4,31.32 26.64,1.27 57.93,-45.74 75.66,-70.78l75.13 0z"/>
  <path class="fil8" d="M1551.69 1243.65c28.68,47.4 70.46,77.25 116.98,77.25 34.55,0 66.48,-16.48 92.38,-44.37 -38.98,49.26 -92.58,79.68 -151.76,79.68 -28.68,0 -56.04,-7.15 -81.07,-20.12l23.47 -92.45z"/>
  <path class="fil9" d="M1547.65 1289.99c8.1,-9.15 14.82,-8.28 20.36,1.29 5.02,12.92 3.09,21.79 -3.3,28.02 -11.05,9.21 -21.5,12.41 -33.75,18.21 -0.94,-0.43 -1.86,-0.87 -2.78,-1.33l8.98 -35.36 10.48 -10.83z"/>
  <path class="fil9" d="M1597.68 1355.83c6.13,-18.27 13.51,-30.58 24.45,-30.09 7.12,0.32 8.21,11.13 5.79,29.47 -10.75,1.27 -20.9,1.61 -30.23,0.62z"/>
  <path class="fil4" d="M1575.54 862.04c18.49,-68.61 49.43,-132.44 75.1,-198.86 4.08,-9.4 4.3,-18.13 5.5,-26.97 30.29,-11.39 76.89,-13.3 90.79,5.55 10.63,16.27 14.48,33.37 30.03,52.52 -20.6,50.03 -39.49,102.44 -57.05,156.73 -2.1,9.95 2.28,13.2 9.91,13.08l30.53 -3.17 49.03 -143.33c5.16,-16.59 6.66,-30 1.82,-37.84 -33.76,-52.87 -35.74,-117.57 -53.61,-176.35 -3.02,-9.5 -9.46,-14.36 -19.36,-14.53 -67.62,-1.35 -103.95,10.79 -107.3,54.46l-2.38 85.52c-1.58,18.42 -6.16,33.4 -12.8,46.03 -26.96,57.95 -63.93,119.37 -80.89,173.86 13.89,1.51 27.4,6.36 40.68,13.31z"/>
  <path class="fil10" d="M1786.12 856.23l50.3 -4.38 23.36 -84.37c4.29,-15.7 4.54,-22.78 5.8,-36.7 12.27,-75.53 -21.44,-149.4 -31.14,-221.56 -5.17,-27.02 -22.84,-28.61 -50.52,-24.96 11.33,53.59 15.85,112.97 33.99,160.77 5.82,25.21 22.95,43.31 9.68,78.13l-41.47 133.07z"/>
  <path class="fil10" d="M1519.34 814.3l70.25 -144.9c-21.5,-12.7 -44.93,-15.73 -68.6,-17.57 -21.53,-0.83 -31.69,14.32 -26.9,50.5 8.42,37.32 8.53,79.33 25.25,111.97z"/>
  <path class="fil10" d="M1488.48 836.85c-32.24,-35.75 -61.32,-73.31 -80.74,-116.38 2.89,-18.21 7.32,-29.87 15.67,-24.88 44.32,34.39 63.14,83.09 65.08,141.26z"/>
  <path class="fil4" d="M1743.64 697.67l-48.11 161.32c-1.66,5.57 -7.92,9 -16.27,10.61 -25.38,4.87 -45.43,0.42 -61.56,-12.04 -9.74,-7.52 -9.96,-16.38 -4.36,-31.45l60.96 -163.83 52.36 -2.12c11.81,1.74 16.72,15.55 16.98,37.5z"/>
 </g>
</svg>
